Coordinates
version=1
nRows=21
nColumns=27
inDegrees=yes

Units are S.I. units (second, meters, Newtons, ...)
If the header above contains a line with 'inDegrees', this indicates whether rotational values are in degrees (yes) or radians (no).

endheader
time	pelvis_rotation	pelvis_tilt	pelvis_list	pelvis_tx	pelvis_ty	pelvis_tz	hip_flexion_r	hip_adduction_r	hip_rotation_r	knee_angle_r	knee_rotation_r	knee_adduction_r	knee_angle_r_beta	ankle_angle_r	subtalar_angle_r	mtp_angle_r	hip_flexion_l	hip_adduction_l	hip_rotation_l	knee_angle_l	knee_rotation_l	knee_adduction_l	knee_angle_l_beta	ankle_angle_l	subtalar_angle_l	mtp_angle_l
      9.84000000	      4.15800697	    -46.30044804	      5.74220155	     -0.14860597	      0.71674783	     -1.20576859	    108.18696202	    -11.66473698	     -7.83349404	     78.67662697	     -8.50394436	      6.47771878	      1.37316618	     12.23688598	    -10.91852807	      0.00000000	    106.03306963	     -8.74977943	    -14.86104035	     75.43244737	     -9.15761029	     -9.06809943	      1.31654457	     11.85483033	     -2.52510216	      0.00000000
      9.84500000	      3.86126418	    -46.16934930	      5.16634505	     -0.14816360	      0.71855935	     -1.20556637	    107.57671642	    -11.51532821	     -8.96337882	     78.14235177	     -9.10597977	      6.99029848	      1.36384132	     12.07103699	    -11.30830359	      0.00000000	    105.74568017	     -8.84923185	    -14.93097609	     75.12249453	     -9.52451466	     -9.48087306	      1.31113487	     11.71014672	     -2.76028751	      0.00000000
      9.85000000	      4.27302561	    -46.21872901	      5.72202432	     -0.14821624	      0.71910644	     -1.20589522	    107.73528727	    -11.80162141	     -8.60682736	     78.15997255	     -9.03426782	      7.07202054	      1.36414886	     12.02454398	    -11.25529797	      0.00000000	    105.63286410	     -8.57387394	    -15.30811375	     74.90196543	     -9.53307908	     -9.47689337	      1.30728591	     11.63334566	     -2.75138702	      0.00000000
      9.85500000	      4.42820140	    -46.18256884	      5.71884289	     -0.14822633	      0.71975431	     -1.20599168	    107.59636322	    -11.98505981	     -8.74758825	     78.04310533	     -9.04006952	      7.07458456	      1.36210915	     12.02894091	    -11.15095419	      0.00000000	    105.53372727	     -8.39992384	    -15.24202800	     74.74010959	     -9.52768103	     -9.47770525	      1.30446100	     11.53744063	     -2.76732539	      0.00000000
      9.86000000	      4.25743591	    -46.35212936	      5.74662349	     -0.14879012	      0.71929360	     -1.20571853	    107.87401589	    -11.77197888	     -7.95781445	     78.14559712	     -8.42737066	      6.53587786	      1.36389797	     12.03282766	    -10.90310341	      0.00000000	    105.76058639	     -8.66285970	    -14.93922086	     74.86852904	     -9.13986126	     -9.08614979	      1.30670234	     11.56015745	     -2.45505661	      0.00000000
      9.86500000	      4.54689389	    -46.19935435	      5.62580373	     -0.14825030	      0.72109503	     -1.20604859	    107.37564338	    -12.15215527	     -9.00699331	     77.75245922	     -9.03935940	      7.12258195	      1.35703641	     11.96622026	    -11.10979276	      0.00000000	    105.41693202	     -8.24240313	    -15.14050720	     74.44524759	     -9.52004561	     -9.48556146	      1.29931468	     11.36960127	     -2.76577056	      0.00000000
      9.87000000	      4.34749566	    -46.19031749	      5.68707356	     -0.14829714	      0.72163527	     -1.20590150	    107.32562584	    -11.90003417	     -8.81111054	     77.62390418	     -9.01314871	      7.12212409	      1.35479271	     11.86034909	    -11.20096269	      0.00000000	    105.27228250	     -8.48968976	    -15.38009133	     74.33741080	     -9.51899261	     -9.49010141	      1.29743258	     11.36404010	     -2.64364218	      0.00000000
      9.87500000	      4.34117491	    -46.38271013	      5.66535554	     -0.14886330	      0.72112332	     -1.20573413	    107.60695789	    -11.88072030	     -8.18090938	     77.75143992	     -8.41557150	      6.57189913	      1.35701862	     11.90310106	    -10.88966884	      0.00000000	    105.57899708	     -8.55575857	    -14.89086046	     74.47686792	     -9.11409301	     -9.09570196	      1.29986656	     11.38110503	     -2.41146608	      0.00000000
      9.88000000	      4.55721264	    -46.24168002	      5.57628240	     -0.14833075	      0.72283868	     -1.20605071	    107.14877887	    -12.16273893	     -9.13549488	     77.36995218	     -9.02506782	      7.13935577	      1.35036041	     11.79558490	    -11.10914963	      0.00000000	    105.23507452	     -8.22150907	    -15.17404331	     74.07280801	     -9.50686319	     -9.49606444	      1.29281439	     11.21303632	     -2.66782665	      0.00000000
      9.88500000	      4.21948231	    -46.17336184	      5.55055654	     -0.14831147	      0.72345626	     -1.20578669	    106.99779982	    -11.79150030	     -8.96374233	     77.20193431	     -9.00458702	      7.15145517	      1.34742794	     11.73669787	    -11.22071446	      0.00000000	    105.01133262	     -8.59598442	    -15.43227266	     73.96933208	     -9.50915035	     -9.49603382	      1.29100839	     11.20826471	     -2.50008774	      0.00000000
      9.89000000	      4.47147519	    -46.20823407	      5.67198291	     -0.14835631	      0.72396227	     -1.20597396	    106.99013831	    -12.02765522	     -9.00410220	     77.13171592	     -8.98565758	      7.17861236	      1.34620240	     11.71022235	    -11.17796905	      0.00000000	    104.99560463	     -8.35258524	    -15.41512729	     73.82176749	     -9.50691903	     -9.49700482	      1.28843290	     11.11847731	     -2.55618788	      0.00000000
      9.89500000	      4.54292605	    -46.41270850	      5.73184082	     -0.14895775	      0.72338455	     -1.20588021	    107.31710296	    -12.06866515	     -8.31003262	     77.29272534	     -8.36427755	      6.63819520	      1.34901255	     11.78514488	    -10.86012238	      0.00000000	    105.31751692	     -8.35144259	    -14.94567573	     73.95754538	     -9.10127137	     -9.10273450	      1.29080267	     11.11716438	     -2.32618345	      0.00000000
      9.90000000	      4.61567876	    -46.22680603	      5.51543924	     -0.14836292	      0.72512140	     -1.20606565	    106.76936430	    -12.23192149	     -9.34099150	     76.87719569	     -9.00363511	      7.20550156	      1.34176018	     11.67738140	    -11.09059217	      0.00000000	    104.93054868	     -8.13656598	    -15.19347886	     73.58034387	     -9.49597247	     -9.49700740	      1.28421927	     10.97046445	     -2.57418847	      0.00000000
      9.90500000	      4.46464757	    -46.19462433	      5.60979124	     -0.14835972	      0.72564210	     -1.20594820	    106.70394507	    -12.03010595	     -9.14326605	     76.76262223	     -8.96917847	      7.23045254	      1.33976050	     11.60653296	    -11.19914525	      0.00000000	    104.76266748	     -8.33514301	    -15.43652804	     73.47182595	     -9.49948141	     -9.49676590	      1.28232527	     10.97485100	     -2.43683047	      0.00000000
      9.91000000	      4.46389954	    -46.18467289	      5.57308229	     -0.14835029	      0.72619480	     -1.20593791	    106.59818602	    -12.04130738	     -9.21117057	     76.64177012	     -8.96819891	      7.23741815	      1.33765123	     11.58664097	    -11.15526121	      0.00000000	    104.68438026	     -8.31792676	    -15.42025096	     73.35609111	     -9.49703457	     -9.49571670	      1.28030532	     10.92221710	     -2.41722796	      0.00000000
      9.91500000	      4.47580182	    -46.40672520	      5.62211117	     -0.14895971	      0.72557693	     -1.20576122	    106.95045431	    -12.01315929	     -8.47933261	     76.80509452	     -8.33962421	      6.69069927	      1.34050178	     11.63288891	    -10.88353284	      0.00000000	    105.02274466	     -8.38206646	    -14.96969353	     73.51044067	     -9.08761599	     -9.09848494	      1.28299922	     10.94281155	     -2.16801282	      0.00000000
      9.92000000	      4.34670786	    -46.14217656	      5.51186496	     -0.14831758	      0.72728265	     -1.20580935	    106.37913781	    -11.92704548	     -9.24593000	     76.39394342	     -8.95464157	      7.25323961	      1.33332584	     11.49160111	    -11.18932668	      0.00000000	    104.48034543	     -8.41771612	    -15.48765801	     73.14266262	     -9.49405329	     -9.49822833	      1.27658029	     10.84515862	     -2.33606304	      0.00000000
      9.92500000	      4.58007952	    -46.18052176	      5.45888824	     -0.14831998	      0.72786508	     -1.20597159	    106.29146283	    -12.21021330	     -9.50163379	     76.28021059	     -8.94518528	      7.34189733	      1.33134083	     11.49758924	    -11.17753287	      0.00000000	    104.50676072	     -8.12812086	    -15.27199539	     73.01060595	     -9.49041002	     -9.48777664	      1.27427546	     10.75275798	     -2.36406896	      0.00000000
      9.93000000	      4.37953431	    -46.12791307	      5.46257241	     -0.14829770	      0.72840045	     -1.20577694	    106.17556227	    -11.98100587	     -9.38264571	     76.15219643	     -8.93698832	      7.32521055	      1.32910656	     11.43741021	    -11.20330993	      0.00000000	    104.33032919	     -8.34786918	    -15.44499943	     72.91241208	     -9.49085385	     -9.49125171	      1.27256166	     10.74160613	     -2.26680251	      0.00000000
      9.93500000	      4.50908876	    -46.14555621	      5.43753660	     -0.14827866	      0.72896994	     -1.20583053	    106.09152619	    -12.13252644	     -9.53355217	     76.04222627	     -8.93772546	      7.35263947	      1.32718722	     11.41899881	    -11.16713240	      0.00000000	    104.30501227	     -8.18671269	    -15.34053446	     72.78372789	     -9.48889821	     -9.48685698	      1.27031569	     10.67240406	     -2.29077502	      0.00000000
      9.94000000	      4.06079692	    -46.32203593	      5.34918669	     -0.14884351	      0.72839175	     -1.20530075	    106.37779151	    -11.64131544	     -8.64498727	     76.14966732	     -8.31766403	      6.77302644	      1.32906242	     11.43837899	    -10.94218571	      0.00000000	    104.53228100	     -8.71925569	    -15.06261326	     72.99174292	     -9.07250230	     -9.08650341	      1.27394624	     10.78789815	     -1.89648946	      0.00000000
